<?xml version="1.0" encoding="UTF-8" standalone="no"?>
<!DOCTYPE svg PUBLIC "-//W3C//DTD SVG 1.1//EN" "http://www.w3.org/Graphics/SVG/1.1/DTD/svg11.dtd">
<svg width="100%" height="100%" viewBox="0 0 859 896" version="1.1" xmlns="http://www.w3.org/2000/svg" xmlns:xlink="http://www.w3.org/1999/xlink" xml:space="preserve" xmlns:serif="http://www.serif.com/" style="fill-rule:evenodd;clip-rule:evenodd;stroke-linecap:round;stroke-linejoin:round;stroke-miterlimit:1.5;">
    <g transform="matrix(1,0,0,1,-116,-3332)">
        <g id="Rover" transform="matrix(1,0,0,1,0.00399562,3240)">
            <path d="M136.399,303.75L545.596,112.5L954.793,303.75L954.793,776.25L545.596,967.5L136.399,776.25L136.399,303.75Z" style="fill:white;stroke:white;stroke-width:40px;"/>
            <g>
                <g>
                    <g transform="matrix(1,0,0,1,-0.00399562,-3240)">
                        <path d="M278.422,3957.15L296.497,3957.18" style="fill:none;stroke:rgb(226,0,116);stroke-width:15px;stroke-linecap:butt;stroke-miterlimit:1.95122;"/>
                    </g>
                    <g transform="matrix(1,0,0,1,-0.00399562,-3269.69)">
                        <path d="M278.422,3957.15L296.497,3957.18" style="fill:none;stroke:rgb(226,0,116);stroke-width:15px;stroke-linecap:butt;stroke-miterlimit:1.95122;"/>
                    </g>
                    <g transform="matrix(1,0,0,1,-0.00399562,-3297.5)">
                        <path d="M278.422,3957.15L296.497,3957.18" style="fill:none;stroke:rgb(226,0,116);stroke-width:15px;stroke-linecap:butt;stroke-miterlimit:1.95122;"/>
                    </g>
                    <g transform="matrix(1,0,0,1,-0.00399562,-3323.44)">
                        <path d="M278.422,3957.15L296.497,3957.18" style="fill:none;stroke:rgb(226,0,116);stroke-width:15px;stroke-linecap:butt;stroke-miterlimit:1.95122;"/>
                    </g>
                    <g transform="matrix(1,0,0,1,-0.00399562,-3345)">
                        <path d="M278.422,3957.15L296.497,3957.18" style="fill:none;stroke:rgb(226,0,116);stroke-width:15px;stroke-linecap:butt;stroke-miterlimit:1.95122;"/>
                    </g>
                    <g transform="matrix(1,0,0,1,38.3408,-3240)">
                        <path d="M278.422,3957.15L296.497,3957.18" style="fill:none;stroke:rgb(226,0,116);stroke-width:15px;stroke-linecap:butt;stroke-miterlimit:1.95122;"/>
                    </g>
                    <g transform="matrix(1,0,0,1,38.3408,-3269.69)">
                        <path d="M278.422,3957.15L296.497,3957.18" style="fill:none;stroke:rgb(226,0,116);stroke-width:15px;stroke-linecap:butt;stroke-miterlimit:1.95122;"/>
                    </g>
                    <g transform="matrix(1,0,0,1,38.3408,-3297.5)">
                        <path d="M278.422,3957.15L296.497,3957.18" style="fill:none;stroke:rgb(226,0,116);stroke-width:15px;stroke-linecap:butt;stroke-miterlimit:1.95122;"/>
                    </g>
                    <g transform="matrix(1,0,0,1,38.3408,-3323.44)">
                        <path d="M278.422,3957.15L296.497,3957.18" style="fill:none;stroke:rgb(226,0,116);stroke-width:15px;stroke-linecap:butt;stroke-miterlimit:1.95122;"/>
                    </g>
                    <g transform="matrix(1,0,0,1,38.3408,-3345)">
                        <path d="M278.422,3957.15L296.497,3957.18" style="fill:none;stroke:rgb(226,0,116);stroke-width:15px;stroke-linecap:butt;stroke-miterlimit:1.95122;"/>
                    </g>
                    <g transform="matrix(1,0,0,1,-0.00399562,-3170.25)">
                        <path d="M266.88,3797.87C266.88,3778.53 282.58,3762.84 301.919,3762.84L310.669,3762.84C330.007,3762.84 345.707,3778.53 345.707,3797.87L345.707,3898.65C345.707,3917.99 335.038,3923.72 315.7,3923.72L296.9,3923.72C277.562,3923.72 266.88,3917.99 266.88,3898.65L266.88,3797.87ZM284.399,3797.87C284.399,3788.2 292.25,3780.35 301.919,3780.35L310.669,3780.35C320.338,3780.35 328.188,3788.2 328.188,3797.87L328.188,3898.65C328.188,3908.32 325.369,3906.2 315.7,3906.2L296.9,3906.2C287.231,3906.2 284.399,3908.32 284.399,3898.65L284.399,3797.87Z" style="fill:rgb(226,0,116);"/>
                    </g>
                </g>
                <g transform="matrix(1,0,0,1,324.789,0)">
                    <g transform="matrix(1,0,0,1,-0.00399562,-3240)">
                        <path d="M278.422,3957.15L296.497,3957.18" style="fill:none;stroke:rgb(226,0,116);stroke-width:15px;stroke-linecap:butt;stroke-miterlimit:1.95122;"/>
                    </g>
                    <g transform="matrix(1,0,0,1,-0.00399562,-3269.69)">
                        <path d="M278.422,3957.15L296.497,3957.18" style="fill:none;stroke:rgb(226,0,116);stroke-width:15px;stroke-linecap:butt;stroke-miterlimit:1.95122;"/>
                    </g>
                    <g transform="matrix(1,0,0,1,-0.00399562,-3297.5)">
                        <path d="M278.422,3957.15L296.497,3957.18" style="fill:none;stroke:rgb(226,0,116);stroke-width:15px;stroke-linecap:butt;stroke-miterlimit:1.95122;"/>
                    </g>
                    <g transform="matrix(1,0,0,1,-0.00399562,-3323.44)">
                        <path d="M278.422,3957.15L296.497,3957.18" style="fill:none;stroke:rgb(226,0,116);stroke-width:15px;stroke-linecap:butt;stroke-miterlimit:1.95122;"/>
                    </g>
                    <g transform="matrix(1,0,0,1,-0.00399562,-3345)">
                        <path d="M278.422,3957.15L296.497,3957.18" style="fill:none;stroke:rgb(226,0,116);stroke-width:15px;stroke-linecap:butt;stroke-miterlimit:1.95122;"/>
                    </g>
                    <g transform="matrix(1,0,0,1,38.3408,-3240)">
                        <path d="M278.422,3957.15L296.497,3957.18" style="fill:none;stroke:rgb(226,0,116);stroke-width:15px;stroke-linecap:butt;stroke-miterlimit:1.95122;"/>
                    </g>
                    <g transform="matrix(1,0,0,1,38.3408,-3269.69)">
                        <path d="M278.422,3957.15L296.497,3957.18" style="fill:none;stroke:rgb(226,0,116);stroke-width:15px;stroke-linecap:butt;stroke-miterlimit:1.95122;"/>
                    </g>
                    <g transform="matrix(1,0,0,1,38.3408,-3297.5)">
                        <path d="M278.422,3957.15L296.497,3957.18" style="fill:none;stroke:rgb(226,0,116);stroke-width:15px;stroke-linecap:butt;stroke-miterlimit:1.95122;"/>
                    </g>
                    <g transform="matrix(1,0,0,1,38.3408,-3323.44)">
                        <path d="M278.422,3957.15L296.497,3957.18" style="fill:none;stroke:rgb(226,0,116);stroke-width:15px;stroke-linecap:butt;stroke-miterlimit:1.95122;"/>
                    </g>
                    <g transform="matrix(1,0,0,1,38.3408,-3345)">
                        <path d="M278.422,3957.15L296.497,3957.18" style="fill:none;stroke:rgb(226,0,116);stroke-width:15px;stroke-linecap:butt;stroke-miterlimit:1.95122;"/>
                    </g>
                    <g transform="matrix(1,0,0,1,-0.00399562,-3170.25)">
                        <path d="M266.88,3797.87C266.88,3778.53 282.58,3762.84 301.919,3762.84L310.669,3762.84C330.007,3762.84 345.707,3778.53 345.707,3797.87L345.707,3898.65C345.707,3917.99 335.038,3923.72 315.7,3923.72L296.9,3923.72C277.562,3923.72 266.88,3917.99 266.88,3898.65L266.88,3797.87ZM284.399,3797.87C284.399,3788.2 292.25,3780.35 301.919,3780.35L310.669,3780.35C320.338,3780.35 328.188,3788.2 328.188,3797.87L328.188,3898.65C328.188,3908.32 325.369,3906.2 315.7,3906.2L296.9,3906.2C287.231,3906.2 284.399,3908.32 284.399,3898.65L284.399,3797.87Z" style="fill:rgb(226,0,116);"/>
                    </g>
                </g>
                <g>
                    <g transform="matrix(1,0,0,1,-0.00399562,-3240)">
                        <path d="M405,3870L396,3915" style="fill:none;stroke:rgb(226,0,116);stroke-width:10px;stroke-linecap:butt;stroke-miterlimit:1.95122;"/>
                    </g>
                    <g transform="matrix(1,0,0,1,-0.00399562,-3240)">
                        <path d="M432,3915L432,3870L540,3870L549,3915" style="fill:none;stroke:rgb(226,0,116);stroke-width:10px;stroke-linecap:butt;stroke-miterlimit:1.95122;"/>
                    </g>
                    <g transform="matrix(1,0,0,1,-0.00399562,-3240)">
                        <path d="M513,3870L517.482,3915" style="fill:none;stroke:rgb(226,0,116);stroke-width:10px;stroke-linecap:butt;stroke-miterlimit:1.95122;"/>
                    </g>
                    <g transform="matrix(1,0,0,1,-0.00399562,-3240)">
                        <path d="M486,3870L486,3915" style="fill:none;stroke:rgb(226,0,116);stroke-width:10px;stroke-linecap:butt;stroke-miterlimit:1.95122;"/>
                    </g>
                    <g transform="matrix(1,0,0,1,-0.00399562,-3240)">
                        <path d="M342,3915L594,3915L576.423,3897L567,3870L369,3870L360,3897L342,3915Z" style="fill:none;stroke:rgb(226,0,116);stroke-width:10px;stroke-linecap:butt;stroke-miterlimit:1.95122;"/>
                    </g>
                    <g transform="matrix(1,0,0,1,-0.00399562,-3240)">
                        <path d="M396,3816L594,3816L603,3825L603,3933L594,3942L342,3942L333,3933L333,3825L342,3816L360,3816" style="fill:none;stroke:rgb(226,0,116);stroke-width:10px;stroke-linecap:butt;stroke-miterlimit:1.95122;"/>
                    </g>
                </g>
                <g transform="matrix(1,0,0,1,-0.00399562,-3240)">
                    <path d="M576,3816L576,3789L567,3780L513,3780L504,3789L504,3811.01L504,3798L486,3780L396,3780L396,3699L432,3699L432,3681L324,3681L324,3699L396,3699L360,3699L360,3834L369,3843L387,3843L396,3834L396,3780" style="fill:none;stroke:rgb(226,0,116);stroke-width:10px;stroke-miterlimit:1.95122;"/>
                </g>
                <g transform="matrix(1.84428,0,0,1.84428,-428.332,-6484.46)">
                    <path d="M506.939,3839.34L509.734,3841.54L508.666,3845.09L505.211,3845.09L504.144,3841.54L506.939,3839.34Z" style="fill:rgb(226,0,116);stroke:rgb(226,0,116);stroke-width:5.42px;stroke-miterlimit:1.95122;"/>
                </g>
                <g transform="matrix(1.84428,0,0,1.84428,-401.096,-6484.46)">
                    <path d="M506.939,3839.34L509.734,3841.54L508.666,3845.09L505.211,3845.09L504.144,3841.54L506.939,3839.34Z" style="fill:rgb(226,0,116);stroke:rgb(226,0,116);stroke-width:5.42px;stroke-miterlimit:1.95122;"/>
                </g>
                <g transform="matrix(1.84428,0,0,1.84428,-373.096,-6484.46)">
                    <path d="M506.939,3839.34L509.734,3841.54L508.666,3845.09L505.211,3845.09L504.144,3841.54L506.939,3839.34Z" style="fill:rgb(226,0,116);stroke:rgb(226,0,116);stroke-width:5.42px;stroke-miterlimit:1.95122;"/>
                </g>
                <g transform="matrix(1,0,0,1,-0.00399562,-3240)">
                    <path d="M527.093,3699L527.748,3780L553.433,3780L553.878,3699L527.093,3699Z" style="fill:none;stroke:rgb(226,0,116);stroke-width:10px;stroke-miterlimit:1.95122;"/>
                </g>
                <g transform="matrix(1,0,0,1,-0.00399562,-3240)">
                    <path d="M477,3672L603,3672L594,3672C594,3672 593.881,3689.26 594,3690C594.119,3690.74 585,3699 585,3699L495,3699L486,3690L486,3672L477,3672Z" style="fill:none;stroke:rgb(226,0,116);stroke-width:10px;stroke-miterlimit:1.95122;"/>
                </g>
                <g transform="matrix(1,0,0,1,-0.00399562,-3240)">
                    <path d="M540,3672L540,3636" style="fill:none;stroke:rgb(226,0,116);stroke-width:10px;stroke-linecap:butt;stroke-miterlimit:1.95122;"/>
                </g>
                <g transform="matrix(1,0,0,1.02278,-0.00399562,-3326.88)">
                    <path d="M540,3627L540,3618.44" style="fill:none;stroke:rgb(226,0,116);stroke-width:9.89px;stroke-miterlimit:1.95122;"/>
                </g>
                <g transform="matrix(1,0,0,1,-0.00399562,-3240)">
                    <path d="M522,3600C533.654,3590.89 545.657,3590.96 558,3600" style="fill:none;stroke:rgb(226,0,116);stroke-width:10px;stroke-miterlimit:1.95122;"/>
                </g>
                <g transform="matrix(1,0,0,1,-0.00399562,-3240)">
                    <path d="M504,3582C528.285,3561.98 552.289,3561.66 576,3582" style="fill:none;stroke:rgb(226,0,116);stroke-width:10px;stroke-miterlimit:1.95122;"/>
                </g>
                <g>
                    <g transform="matrix(1,0,0,1,1.06526,-3243.37)">
                        <circle cx="397.848" cy="3626.22" r="9.424" style="fill:rgb(226,0,116);"/>
                    </g>
                    <g transform="matrix(1.14773,0,0,1.14773,-63.4421,-3779.7)">
                        <path d="M402.843,3600.2C417.514,3600.2 429.424,3612.11 429.424,3626.78C429.424,3641.45 417.514,3653.36 402.843,3653.36C388.173,3653.36 376.263,3641.45 376.263,3626.78C376.263,3612.11 388.173,3600.2 402.843,3600.2ZM402.843,3610.71C411.715,3610.71 418.917,3617.91 418.917,3626.78C418.917,3635.65 411.715,3642.85 402.843,3642.85C393.972,3642.85 386.77,3635.65 386.77,3626.78C386.77,3617.91 393.972,3610.71 402.843,3610.71Z" style="fill:rgb(226,0,116);"/>
                    </g>
                </g>
                <g transform="matrix(1,0,0,1,-53.8805,-3347.72)">
                    <path d="M370.359,3674.57L492.627,3674.57L519.687,3701.63L519.687,3764.96L492.627,3792.02L370.359,3792.02L343.299,3764.96L343.299,3701.63L370.359,3674.57ZM373.229,3681.5L489.757,3681.5L512.758,3704.5L512.758,3762.09L489.757,3785.09L373.229,3785.09L350.228,3762.09L350.228,3704.5L373.229,3681.5Z" style="fill:rgb(226,0,116);"/>
                </g>
                <g transform="matrix(1,0,0,1,-53.8805,-3347.72)">
                    <path d="M370.359,3674.57L383.439,3674.57L410.499,3676.63L410.499,3715.56L393.412,3733.14L344.796,3733.14L343.299,3706.08L343.299,3701.63L370.359,3674.57ZM373.229,3681.5L380.569,3681.5L403.57,3679.5L403.57,3712.69L390.541,3726.21L347.666,3726.21L350.228,3703.21L350.228,3704.5L373.229,3681.5Z" style="fill:rgb(226,0,116);"/>
                </g>
                <g transform="matrix(1,0,0,1,-0.00399562,-3240)">
                    <path d="M437.463,3681L317.246,3681L307.305,3664.7L314.802,3664.5C314.802,3664.5 318.17,3664.43 321.771,3664.38C321.735,3659.36 321.765,3653.94 321.765,3653.94L336.764,3653.89L336.922,3664.5L349.844,3664.5L349.927,3653.94L364.927,3654.06L364.844,3664.5L448.5,3664.5L437.463,3681Z" style="fill:rgb(226,0,116);"/>
                </g>
            </g>
            <g transform="matrix(1,0,0,1,-0.00399562,-3240)">
                <path d="M720.97,3478.03L720.97,4081.97" style="fill:none;stroke:white;stroke-width:20px;stroke-linecap:square;"/>
            </g>
            <path d="M553.982,116.843C548.661,114.386 542.531,114.386 537.21,116.843L147.498,296.843C140.418,300.113 135.885,307.201 135.885,315L135.885,765C135.885,772.799 140.418,779.887 147.498,783.157L537.21,963.157C542.531,965.614 548.661,965.614 553.982,963.157L943.694,783.157C950.774,779.887 955.307,772.799 955.307,765L955.307,315C955.307,307.201 950.774,300.113 943.694,296.843L553.982,116.843ZM720.966,238.03L545.596,157.03L175.885,327.793L175.885,752.207L545.596,922.97L720.966,841.97L720.966,238.03Z" style="fill:rgb(0,105,145);"/>
            <g transform="matrix(4.61306e-17,-0.75337,0.75337,4.61306e-17,428.41,897.283)">
                <g transform="matrix(3.36847,0,0,3.52839,-1675.22,-1003.35)">
                    <ellipse cx="607.997" cy="437.667" rx="8.906" ry="8.502" style="fill:white;"/>
                </g>
                <path d="M371.563,470.915C333.496,471.576 302.798,502.683 302.798,540.904C302.798,579.538 334.164,610.904 372.798,610.904L408.661,610.904C419.699,610.904 428.661,601.942 428.661,590.904L428.661,495.311C428.661,451.158 464.508,415.311 508.661,415.311C552.814,415.311 588.661,451.158 588.661,495.311L588.661,590.904C588.661,601.942 597.623,610.904 608.661,610.904C619.699,610.904 628.661,601.942 628.661,590.904L628.7,525.9C628.7,509.343 642.143,495.9 658.7,495.9C675.257,495.9 688.7,509.343 688.7,525.9L688.661,590.904C688.661,635.057 652.814,670.904 608.661,670.904C564.508,670.904 528.661,635.057 528.661,590.904L528.661,495.311C528.661,484.273 519.699,475.311 508.661,475.311C497.623,475.311 488.661,484.273 488.661,495.311L488.661,590.904C488.661,635.057 452.814,670.904 408.661,670.904C408.661,670.904 372.798,670.904 372.798,670.904C301.049,670.904 242.798,612.653 242.798,540.904C242.798,469.155 301.049,410.904 372.798,410.904C373.339,410.904 373.878,410.918 374.413,410.946C393.219,411.166 411.068,415.387 427.156,422.799C413.605,437.523 404.204,456.128 400.818,476.75C392.251,473.011 382.799,470.937 372.866,470.937C372.429,470.937 371.993,470.93 371.563,470.915Z" style="fill:white;"/>
                <g transform="matrix(2.5841,0,0,2.79858,-1092.79,-791.427)">
                    <ellipse cx="677.794" cy="440.342" rx="11.609" ry="10.72" style="fill:white;"/>
                </g>
            </g>
        </g>
    </g>
</svg>
