<?xml version="1.0" encoding="UTF-8" standalone="no"?>
<!DOCTYPE svg PUBLIC "-//W3C//DTD SVG 1.1//EN" "http://www.w3.org/Graphics/SVG/1.1/DTD/svg11.dtd">
<svg width="100%" height="100%" viewBox="0 0 859 896" version="1.1" xmlns="http://www.w3.org/2000/svg" xmlns:xlink="http://www.w3.org/1999/xlink" xml:space="preserve" xmlns:serif="http://www.serif.com/" style="fill-rule:evenodd;clip-rule:evenodd;stroke-linecap:round;stroke-linejoin:round;stroke-miterlimit:1.5;">
    <g transform="matrix(1,0,0,1,-1206,-2252)">
        <g id="Racoon" transform="matrix(1,0,0,1,1090.16,2160)">
            <path d="M136.399,303.75L545.596,112.5L954.793,303.75L954.793,776.25L545.596,967.5L136.399,776.25L136.399,303.75Z" style="fill:white;stroke:white;stroke-width:40px;"/>
            <g transform="matrix(1,0,0,1,3.06601,43.3001)">
                <g transform="matrix(1,0,0,1,-1090.16,-2160)">
                    <path d="M1467.23,2521.57C1419.05,2543.04 1396.02,2568.49 1362.67,2607.52C1327.79,2648.34 1315.85,2703.24 1286.89,2716.96M1286.89,2716.96C1309.68,2719.22 1359.52,2746.42 1394.62,2763.75C1436.57,2784.45 1493.83,2842.93 1538.59,2841.18C1585.71,2839.34 1647.87,2782.29 1686.95,2760.59C1747.35,2727.05 1786.61,2714.12 1784.12,2713.07C1758.53,2702.28 1734.27,2627.19 1691.39,2577.93C1642.71,2522 1573.45,2509.65 1562.1,2508.95C1553.2,2508.4 1519.21,2467.79 1522.64,2462.83C1513.49,2476.91 1512.44,2507.34 1522.29,2522.66C1503.16,2502.76 1471.03,2488.14 1438.88,2505.38C1458.48,2516.78 1470.12,2527.35 1477.86,2537.52M1710.89,2603.58C1725.6,2591.85 1741.77,2549.77 1730.15,2516.97C1704.63,2526.7 1672.96,2533.67 1638.47,2535.18M1439.19,2536.12C1404.81,2532.41 1371.27,2528.29 1340.77,2518.09C1333.38,2551.07 1339.59,2578.68 1364.71,2605.13" style="fill:none;stroke:rgb(226,0,116);stroke-width:10px;"/>
                </g>
                <g transform="matrix(1,0,0,1,-1090.16,-2160)">
                    <path d="M1303.87,2715.86C1358.27,2724.46 1435.28,2609.72 1538.59,2684.17C1640.4,2601.29 1725.5,2733.56 1771.79,2712.72L1709.93,2739.83C1723.24,2738.3 1730.61,2751.99 1739.45,2765.53C1685.62,2755.45 1675.44,2760.01 1643.38,2779.68C1573.28,2719.83 1496.73,2723.37 1433.76,2781.59C1409.45,2758.79 1386.7,2755.62 1336.34,2766.2C1345.03,2756.19 1354.4,2749.24 1365.33,2737.66L1303.87,2715.86Z" style="fill:rgb(226,0,116);"/>
                    <path d="M1538.23,2671.78C1601.25,2624.92 1658.08,2652.55 1704.04,2679.15C1718.39,2687.47 1731.56,2695.59 1743.41,2700.58C1752.6,2704.45 1760.66,2706.74 1767.64,2703.62L1767.77,2703.56C1772.81,2701.35 1778.69,2703.63 1780.92,2708.66C1783.16,2713.69 1780.91,2719.58 1775.89,2721.84L1775.8,2721.88L1733.73,2740.32C1738.65,2745.69 1743.11,2752.85 1747.83,2760.07C1750.02,2763.42 1749.99,2767.76 1747.77,2771.09C1745.55,2774.42 1741.55,2776.1 1737.61,2775.36C1687.76,2766.03 1678.3,2769.99 1648.6,2788.21C1644.91,2790.47 1640.18,2790.1 1636.88,2787.29C1603.98,2759.19 1569.66,2745.72 1536.09,2746.36C1502.59,2747 1470.03,2761.68 1440.55,2788.93C1436.7,2792.49 1430.75,2792.47 1426.92,2788.89C1404.87,2768.2 1384.08,2766.39 1338.4,2775.99C1334.2,2776.87 1329.9,2774.98 1327.72,2771.28C1325.55,2767.58 1325.97,2762.9 1328.79,2759.65C1334.47,2753.1 1340.44,2747.83 1346.95,2741.75L1300.52,2725.29C1295.65,2723.56 1292.9,2718.41 1294.17,2713.4C1295.45,2708.39 1300.32,2705.18 1305.43,2705.98C1314.6,2707.43 1324.46,2704.34 1335.19,2699.58C1347.68,2694.04 1361.08,2686.08 1375.43,2678.21C1420.75,2653.36 1474.77,2629.91 1538.23,2671.78ZM1303.87,2715.86C1358.27,2724.46 1435.28,2609.72 1538.59,2684.17C1640.4,2601.29 1725.5,2733.56 1771.79,2712.72L1709.93,2739.83C1723.24,2738.3 1730.61,2751.99 1739.45,2765.53C1685.62,2755.45 1675.44,2760.01 1643.38,2779.68C1573.28,2719.83 1496.73,2723.37 1433.76,2781.59C1409.45,2758.79 1386.7,2755.62 1336.34,2766.2C1345.03,2756.19 1354.4,2749.24 1365.33,2737.66L1303.87,2715.86Z" style="fill:rgb(226,0,116);"/>
                </g>
                <g transform="matrix(1.09784,-0.0112801,0.0111804,1.08813,-1424.9,-2385.34)">
                    <ellipse cx="1613.72" cy="2715.52" rx="40.551" ry="40.442" style="fill:white;"/>
                </g>
                <g transform="matrix(1.13611,0,0,1.08471,-1295.92,-2391.76)">
                    <ellipse cx="1536.51" cy="2779.12" rx="24.766" ry="26.039" style="fill:rgb(226,0,116);"/>
                </g>
                <g transform="matrix(1,0,0,1,-1090.16,-2160)">
                    <path d="M1536.75,2764.73C1544.31,2763.26 1549.92,2765.43 1553.26,2771.89" style="fill:none;stroke:white;stroke-width:10px;"/>
                </g>
                <g transform="matrix(1,0,0,1,-1090.16,-2160)">
                    <path d="M1467.96,2683.67C1486.84,2683.67 1502.16,2699.11 1502.16,2718.13C1502.16,2737.15 1486.84,2752.59 1467.96,2752.59C1449.09,2752.59 1433.76,2737.15 1433.76,2718.13C1433.76,2699.11 1449.09,2683.67 1467.96,2683.67ZM1456.69,2697.95C1461.12,2697.95 1464.72,2701.62 1464.72,2706.15C1464.72,2710.68 1461.12,2714.35 1456.69,2714.35C1452.25,2714.35 1448.65,2710.68 1448.65,2706.15C1448.65,2701.62 1452.25,2697.95 1456.69,2697.95Z" style="fill:rgb(226,0,116);"/>
                </g>
                <g transform="matrix(1.0979,0,0,1.08819,-1249.32,-2403.05)">
                    <ellipse cx="1613.72" cy="2715.52" rx="40.551" ry="40.442" style="fill:white;"/>
                </g>
                <g transform="matrix(1,0,0,1,-1090.16,-2160)">
                    <path d="M1612.56,2683.62C1631.44,2683.62 1646.76,2699.06 1646.76,2718.08C1646.76,2737.1 1631.44,2752.54 1612.56,2752.54C1593.69,2752.54 1578.36,2737.1 1578.36,2718.08C1578.36,2699.06 1593.69,2683.62 1612.56,2683.62ZM1599.98,2697.88C1604.42,2697.88 1608.02,2701.55 1608.02,2706.08C1608.02,2710.61 1604.42,2714.28 1599.98,2714.28C1595.55,2714.28 1591.95,2710.61 1591.95,2706.08C1591.95,2701.55 1595.55,2697.88 1599.98,2697.88Z" style="fill:rgb(226,0,116);"/>
                </g>
            </g>
            <path d="M553.982,116.843C548.661,114.386 542.531,114.386 537.21,116.843L147.498,296.843C140.418,300.113 135.885,307.201 135.885,315L135.885,765C135.885,772.799 140.418,779.887 147.498,783.157L537.21,963.157C542.531,965.614 548.661,965.614 553.982,963.157L943.694,783.157C950.774,779.887 955.307,772.799 955.307,765L955.307,315C955.307,307.201 950.774,300.113 943.694,296.843L553.982,116.843ZM720.966,238.03L545.596,157.03L175.885,327.793L175.885,752.207L545.596,922.97L720.966,841.97L720.966,238.03Z" style="fill:rgb(0,105,145);"/>
            <g transform="matrix(4.61306e-17,-0.75337,0.75337,4.61306e-17,428.41,897.283)">
                <g transform="matrix(3.36847,0,0,3.52839,-1675.22,-1003.35)">
                    <ellipse cx="607.997" cy="437.667" rx="8.906" ry="8.502" style="fill:white;"/>
                </g>
                <path d="M371.563,470.915C333.496,471.576 302.798,502.683 302.798,540.904C302.798,579.538 334.164,610.904 372.798,610.904L408.661,610.904C419.699,610.904 428.661,601.942 428.661,590.904L428.661,495.311C428.661,451.158 464.508,415.311 508.661,415.311C552.814,415.311 588.661,451.158 588.661,495.311L588.661,590.904C588.661,601.942 597.623,610.904 608.661,610.904C619.699,610.904 628.661,601.942 628.661,590.904L628.7,525.9C628.7,509.343 642.143,495.9 658.7,495.9C675.257,495.9 688.7,509.343 688.7,525.9L688.661,590.904C688.661,635.057 652.814,670.904 608.661,670.904C564.508,670.904 528.661,635.057 528.661,590.904L528.661,495.311C528.661,484.273 519.699,475.311 508.661,475.311C497.623,475.311 488.661,484.273 488.661,495.311L488.661,590.904C488.661,635.057 452.814,670.904 408.661,670.904C408.661,670.904 372.798,670.904 372.798,670.904C301.049,670.904 242.798,612.653 242.798,540.904C242.798,469.155 301.049,410.904 372.798,410.904C373.339,410.904 373.878,410.918 374.413,410.946C393.219,411.166 411.068,415.387 427.156,422.799C413.605,437.523 404.204,456.128 400.818,476.75C392.251,473.011 382.799,470.937 372.866,470.937C372.429,470.937 371.993,470.93 371.563,470.915Z" style="fill:white;"/>
                <g transform="matrix(2.5841,0,0,2.79858,-1092.79,-791.427)">
                    <ellipse cx="677.794" cy="440.342" rx="11.609" ry="10.72" style="fill:white;"/>
                </g>
            </g>
        </g>
    </g>
</svg>
