<?xml version="1.0" encoding="UTF-8" standalone="no"?>
<!-- Generated by SVGo -->

<svg
   width="859"
   height="896"
   version="1.1"
   id="svg1109"
   sodipodi:docname="Spectre_logo.svg"
   inkscape:version="1.1.1 (3bf5ae0d25, 2021-09-20)"
   xmlns:inkscape="http://www.inkscape.org/namespaces/inkscape"
   xmlns:sodipodi="http://sodipodi.sourceforge.net/DTD/sodipodi-0.dtd"
   xmlns="http://www.w3.org/2000/svg"
   xmlns:svg="http://www.w3.org/2000/svg">
  <defs
     id="defs1113">
    <clipPath
       clipPathUnits="userSpaceOnUse"
       id="clipPath18416">
      <g
         inkscape:label="Clip"
         id="use18418">
        <path
           style="fill:#ea0a8e;fill-opacity:1;stroke:none;stroke-width:0.863486;stroke-opacity:1"
           d=""
           id="path18746" />
      </g>
    </clipPath>
    <clipPath
       clipPathUnits="userSpaceOnUse"
       id="clipPath18427">
      <g
         inkscape:label="Clip"
         id="use18429">
        <g
           id="g18742"
           clip-path="url(#clipPath18416)">
          <g
             inkscape:label="Clip"
             id="g18740">
            <path
               style="fill:#ea0a8e;fill-opacity:1;stroke:none;stroke-width:0.863486;stroke-opacity:1"
               d=""
               id="path18738" />
          </g>
        </g>
      </g>
    </clipPath>
  </defs>
  <sodipodi:namedview
     id="namedview1111"
     pagecolor="#ffffff"
     bordercolor="#666666"
     borderopacity="1.0"
     inkscape:pageshadow="2"
     inkscape:pageopacity="0.0"
     inkscape:pagecheckerboard="0"
     showgrid="false"
     inkscape:zoom="0.92857143"
     inkscape:cx="430.76923"
     inkscape:cy="442.07692"
     inkscape:window-width="1920"
     inkscape:window-height="1017"
     inkscape:window-x="1912"
     inkscape:window-y="-8"
     inkscape:window-maximized="1"
     inkscape:current-layer="svg1109">
    <inkscape:grid
       type="xygrid"
       id="grid1336" />
  </sodipodi:namedview>
  <g
     id="g1076">
    <g
       clip-rule="evenodd"
       fill-rule="evenodd"
       stroke-linecap="round"
       stroke-linejoin="round"
       stroke-miterlimit="1.5"
       transform="translate(-3389 -92)"
       id="g1074">
      <g
         transform="translate(3273.2 2.2554e-13)"
         id="g1072">
        <path
           d="m136.4 303.75 409.2-191.25 409.2 191.25v472.5l-409.2 191.25-409.2-191.25v-472.5z"
           fill="#fff"
           stroke="#fff"
           stroke-width="40px"
           id="path1056" />
        <path
           d="m553.98 116.84c-5.321-2.457-11.451-2.457-16.772 0l-389.71 180c-7.08 3.27-11.613 10.358-11.613 18.157v450c0 7.799 4.533 14.887 11.613 18.157l389.71 180c5.321 2.457 11.451 2.457 16.772 0l389.71-180c7.08-3.27 11.613-10.358 11.613-18.157v-450c0-7.799-4.533-14.887-11.613-18.157l-389.71-180zm166.98 121.19-175.37-81-369.71 170.76v424.41l369.71 170.76 175.37-81v-603.94z"
           fill="#006991"
           id="path1058" />
        <g
           transform="matrix(4.6131e-17 -.75337 .75337 4.6131e-17 428.41 897.28)"
           id="g1070">
          <g
             transform="matrix(3.3685 0 0 3.5284 -1675.2 -1003.4)"
             id="g1062">
            <ellipse
               cx="608"
               cy="437.67"
               rx="8.906"
               ry="8.502"
               fill="#fff"
               id="ellipse1060" />
          </g>
          <path
             d="m371.56 470.92c-38.067 0.661-68.765 31.768-68.765 69.989 0 38.634 31.366 70 70 70h35.863c11.038 0 20-8.962 20-20v-95.593c0-44.153 35.847-80 80-80s80 35.847 80 80v95.593c0 11.038 8.962 20 20 20s20-8.962 20-20l0.039-65.004c0-16.557 13.443-30 30-30s30 13.443 30 30l-0.039 65.004c0 44.153-35.847 80-80 80s-80-35.847-80-80v-95.593c0-11.038-8.962-20-20-20s-20 8.962-20 20v95.593c0 44.153-35.847 80-80 80h-35.863c-71.749 0-130-58.251-130-130s58.251-130 130-130c0.541 0 1.08 0.014 1.615 0.042 18.806 0.22 36.655 4.441 52.743 11.853-13.551 14.724-22.952 33.329-26.338 53.951-8.567-3.739-18.019-5.813-27.952-5.813-0.437 0-0.873-7e-3 -1.303-0.022z"
             fill="#fff"
             id="path1064" />
          <g
             transform="matrix(2.5841 0 0 2.7986 -1092.8 -791.43)"
             id="g1068">
            <ellipse
               cx="677.79"
               cy="440.34"
               rx="11.609"
               ry="10.72"
               fill="#fff"
               id="ellipse1066" />
          </g>
        </g>
      </g>
    </g>
  </g>
  <symbol
     id="icon"
     viewBox="0 0 50 50">
    <g
       fill="#e20074"
       id="g1104">
      <g
         id="g1102">
        <path
           d="M31,10.7c-0.2-0.4-0.6-0.6-1-0.4l-3.2,1.4c0,0-0.1-0.1-0.1-0.1c-0.9-0.9-2.4-0.9-3.3,0c-0.9,0.9-0.9,2.4,0,3.3   s2.4,0.9,3.3,0c0.5-0.5,0.7-1.1,0.7-1.8l3.2-1.4C30.9,11.5,31.1,11.1,31,10.7z"
           id="path1078" />
        <path
           d="M33,14.1H34c0.4,0,0.8-0.3,0.8-0.8s-0.3-0.8-0.8-0.8H33c-0.4,0-0.8,0.3-0.8,0.8S32.6,14.1,33,14.1z"
           id="path1080" />
        <path
           d="M17,12.5H16c-0.4,0-0.8,0.3-0.8,0.8s0.3,0.8,0.8,0.8H17c0.4,0,0.8-0.3,0.8-0.8S17.4,12.5,17,12.5z"
           id="path1082" />
        <path
           d="M31.2,8.2l0.7-0.7c0.3-0.3,0.3-0.8,0-1.1c-0.3-0.3-0.8-0.3-1.1,0l-0.7,0.7c-0.3,0.3-0.3,0.8,0,1.1   C30.4,8.5,30.9,8.5,31.2,8.2z"
           id="path1084" />
        <path
           d="M18.8,18.4l-0.7,0.7c-0.3,0.3-0.3,0.8,0,1.1c0.3,0.3,0.8,0.3,1.1,0l0.7-0.7c0.3-0.3,0.3-0.8,0-1.1S19.1,18.1,18.8,18.4z"
           id="path1086" />
        <path
           d="M25,6c0.4,0,0.8-0.3,0.8-0.8V4.3c0-0.4-0.3-0.8-0.8-0.8c-0.4,0-0.8,0.3-0.8,0.8v0.9C24.2,5.7,24.6,6,25,6z"
           id="path1088" />
        <path
           d="M18.8,8.2c0.3,0.3,0.8,0.3,1.1,0c0.3-0.3,0.3-0.8,0-1.1l-0.7-0.7c-0.3-0.3-0.8-0.3-1.1,0c-0.3,0.3-0.3,0.8,0,1.1L18.8,8.2z   "
           id="path1090" />
        <path
           d="M31.9,19.1l-0.7-0.7c-0.3-0.3-0.8-0.3-1.1,0c-0.3,0.3-0.3,0.8,0,1.1l0.7,0.7c0.3,0.3,0.8,0.3,1.1,0   C32.2,19.9,32.2,19.4,31.9,19.1z"
           id="path1092" />
        <path
           d="M36.5,41.8v-1.6h7.9v-9h-7.9v-1.6h-7.8v-4.8c4.9-1.6,8.4-6.1,8.4-11.5c0-6.7-5.4-12.1-12.1-12.1c-6.7,0-12.1,5.4-12.1,12.1   c0,5.4,3.5,9.9,8.4,11.5v4.8h-7.8v1.6H5.6v9h7.9v1.6h7.8v4.4H19v2.6H31v-2.6h-2.2v-4.4H36.5z M18.1,21.2c-2.2-1.9-3.6-4.8-3.6-7.9   c0-5.8,4.7-10.5,10.5-10.5s10.6,4.7,10.6,10.5c0,3.2-1.4,6-3.6,7.9H18.1z M27.9,39.8c-0.8,0.6-1.8,0.9-2.9,0.9   c-1.1,0-2.1-0.3-2.9-0.9c-0.6-0.4-1.1-0.9-1.4-1.5c-0.4-0.8-0.7-1.6-0.7-2.5s0.3-1.8,0.7-2.5c0.4-0.6,0.9-1.1,1.4-1.6   c0.8-0.6,1.8-0.9,2.9-0.9c1.1,0,2.1,0.3,2.9,0.9c0.6,0.4,1.1,0.9,1.4,1.6c0.4,0.7,0.7,1.6,0.7,2.5s-0.3,1.8-0.7,2.5   C29,38.9,28.5,39.4,27.9,39.8z"
           id="path1094" />
        <path
           d="M47.7,30c-0.7,0-1.3,0.6-1.3,1.3v8.7c0,0.7,0.6,1.3,1.3,1.3s1.3-0.6,1.3-1.3v-8.7C49,30.6,48.4,30,47.7,30z"
           id="path1096" />
        <path
           d="M2.3,41.4c0.7,0,1.3-0.6,1.3-1.3v-8.7C3.6,30.6,3,30,2.3,30S1,30.6,1,31.4v8.7C1,40.8,1.6,41.4,2.3,41.4z"
           id="path1098" />
        <circle
           cx="25"
           cy="35.7"
           r="2.6"
           id="circle1100" />
      </g>
    </g>
  </symbol>
  <path
     style="fill:#ea0a8e;fill-opacity:1;stroke:none;stroke-width:0.900647;stroke-opacity:1"
     d="m 333.91204,694.85727 c -0.37375,-0.90725 -0.68062,-3.54167 -0.68717,-5.85462 -0.004,-2.31227 -0.82078,-11.90494 -1.81027,-21.31702 -0.98956,-9.4122 -2.81175,-32.31089 -4.04869,-50.88806 -2.50133,-37.54518 -3.30374,-47.85478 -5.8197,-74.75517 -0.94896,-10.15544 -2.15725,-25.96373 -2.68341,-35.12586 -1.5395,-26.78368 -1.23136,-25.48759 -7.60917,-31.98268 -9.19667,-9.36625 -16.62394,-11.6197 -23.4852,-7.12402 -4.04406,2.64919 -9.02656,11.27481 -12.04719,20.85337 -6.53418,20.7239 -8.64087,42.87491 -8.08182,84.97862 l 0.37436,28.03744 -2.08198,-2.57299 c -6.9046,-8.53392 -13.59467,-33.31045 -16.99,-62.92344 -2.20558,-19.23212 -2.17039,-63.39218 0.067,-85.73219 1.88663,-18.8323 1.92616,-18.66184 -5.51455,-23.78091 -5.99563,-4.12559 -12.12448,-6.21782 -18.21186,-6.21782 -15.13577,0 -23.61289,16.55421 -27.25026,53.21637 -0.8787,8.86481 -0.89136,14.96962 -0.0557,28.37788 1.47966,23.80898 5.32138,61.98232 6.83437,67.91734 0.6951,2.72425 1.49862,6.7769 1.78805,9.00643 l 0.5241,4.05228 -4.09601,-4.50314 c -4.60824,-5.06535 -17.61893,-30.49804 -21.45018,-41.92913 -8.17855,-24.39936 -10.8539,-45.14543 -10.79502,-83.71393 0.006,-18.71906 0.38278,-25.1817 1.91298,-34.94479 2.43244,-15.52573 1.51598,-18.77522 -7.73346,-27.4262 -5.32723,-4.98359 -8.94486,-6.93177 -13.75784,-7.4113 -3.12612,-0.31085 -4.13429,0.0571 -6.85069,2.50997 -9.17294,8.27969 -15.00041,24.99613 -17.8006,51.06045 -1.76303,16.41423 -2.6322,55.36347 -1.65799,74.30614 1.34759,26.22169 0.65647,25.92035 -6.20312,-2.70733 -14.03607,-58.57988 -19.57497,-97.15508 -17.05854,-118.80159 4.80055,-41.29718 22.33331,-59.16573 54.59368,-55.64419 24.05688,2.62651 44.52822,10.57746 83.10524,32.27289 23.3952,13.15668 29.26491,15.78932 36.4599,16.3468 7.11465,0.55179 10.72778,-0.30318 14.1255,-3.33585 2.72118,-2.42822 2.90598,-2.97212 2.90598,-8.56791 0,-8.23377 -1.83282,-13.9059 -10.06027,-31.14122 -10.86352,-22.75612 -14.21237,-37.06434 -13.17647,-56.29233 1.54921,-28.75606 14.54897,-52.40781 36.84299,-67.03974 8.33484,-5.46973 15.47659,-7.5006 26.36041,-7.50022 24.82753,0.002 45.6674,13.57671 57.59672,37.51227 8.37735,16.80879 11.03727,32.81613 8.84677,53.23987 -1.50103,13.99803 -3.62492,20.75613 -11.39152,36.25397 -3.16441,6.31811 -6.82568,14.11994 -8.13421,17.33813 -1.30882,3.21873 -2.7354,6.4927 -3.1695,7.27481 -0.43422,0.78266 -1.04638,4.0254 -1.35955,7.20539 -0.49349,5.01633 -0.29786,6.24772 1.48837,9.2914 3.05513,5.2116 7.05206,7.06151 14.21661,6.57956 7.93506,-0.53328 13.65886,-3.04359 37.45794,-16.4285 45.52645,-25.60383 66.95803,-33.19985 93.13852,-33.01177 22.31267,0.1618 36.45456,12.82795 43.43459,38.90177 1.87496,7.0039 2.0408,9.45728 1.94826,28.82127 -0.1196,26.59469 -1.5826,38.9929 -8.99148,76.55699 -1.22112,6.19191 -2.58792,12.06874 -3.03913,13.05966 -0.44803,0.99133 -1.01975,3.22008 -1.26547,4.95366 -0.25118,1.73369 -1.04207,5.78677 -1.76447,9.00673 -0.72193,3.21986 -1.94525,8.73352 -2.71779,12.25301 -0.77126,3.51917 -2.43419,8.58493 -3.69276,11.25966 l -2.28908,4.85846 0.67226,-10.35762 c 1.51126,-23.2752 0.23552,-68.61788 -2.56307,-91.32253 -3.3674,-27.29169 -10.08853,-43.93239 -19.3003,-47.78109 -5.21558,-2.17929 -9.58548,-0.33923 -17.77957,7.49053 -3.90623,3.73254 -7.54682,7.61494 -8.09117,8.62905 -1.22971,2.29145 -0.97347,7.98799 0.72179,16.0469 1.56555,7.44108 1.76404,43.41499 0.3537,64.14646 -2.09979,30.8759 -8.2369,55.82999 -19.00873,77.29621 -4.46283,8.89314 -12.41171,21.53816 -14.25598,22.67795 -1.30316,0.80524 -1.07712,-5.78497 0.49478,-14.40199 0.72237,-3.96198 1.47854,-8.42076 1.68022,-9.90697 0.20026,-1.4864 1.19848,-8.37612 2.21386,-15.31158 5.3587,-36.5987 4.77491,-69.78269 -1.65881,-94.22764 -5.41705,-20.57431 -13.66955,-28.69844 -26.45659,-26.0443 -6.07257,1.26072 -16.60312,6.28073 -19.28151,9.19093 -1.99052,2.16328 -2.00231,2.33115 -1.04331,15.20379 0.53478,7.15819 1.17692,27.22771 1.4288,44.59823 0.37269,25.69663 0.17637,34.17308 -1.04291,45.48403 -3.13393,29.03306 -10.9421,56.90477 -18.40464,65.69198 l -1.90989,2.24939 0.13884,-10.35816 c 0.0739,-5.6962 0.4299,-12.05449 0.78339,-14.12917 0.99923,-5.87462 -0.62222,-53.61714 -2.19329,-64.57473 -4.8284,-33.68837 -14.83933,-51.89435 -26.87118,-48.87409 -3.0562,0.76665 -9.5043,5.30115 -14.92429,10.49512 L 352,480 l -0.91183,12.33219 c -0.50126,6.78263 -1.01462,14.3581 -1.13988,16.83626 -0.12441,2.47625 -0.49104,5.7188 -0.80891,7.20428 -0.32029,1.48654 -1.20259,13.44296 -1.96527,26.57003 -0.76332,13.12724 -1.54853,25.6918 -1.74466,27.92125 -0.19434,2.22866 -0.63964,8.61176 -0.98594,14.18555 -0.34768,5.57259 -0.9826,10.13191 -1.41409,10.13191 -0.43194,0 -0.78533,3.44526 -0.78533,7.65785 0,8.03072 -3.74894,51.89357 -5.42837,63.4957 -0.53559,3.71465 -1.25745,12.02365 -1.60153,18.46342 -0.35784,6.67739 -0.91603,10.99978 -1.30138,10.05883 z"
     id="path17730" />
  <path
     style="fill:#782121;fill-opacity:0;stroke:#ea0a8e;stroke-width:1.07692;stroke-opacity:1"
     d="m 333.44162,686 c -0.0778,-2.66539 -0.85489,-12.35769 -1.72696,-21.53846 -0.87207,-9.18077 -2.81576,-33.89616 -4.31933,-54.92308 -1.50356,-21.02692 -3.68157,-49.13461 -4.84003,-62.46154 -1.15844,-13.32692 -2.62339,-32.22692 -3.25543,-42 -1.58723,-24.54296 -1.51798,-24.28166 -8.2066,-30.97027 -13.07143,-13.07142 -23.69059,-11.68412 -31.67779,4.13843 -8.9274,17.68509 -11.97624,40.19672 -11.94747,88.21646 l 0.0204,33.92307 -2.63556,-4.30769 C 259.31535,587.02628 254.31968,569.33281 250.71377,546 c -1.55474,-10.06024 -1.91682,-19.35775 -1.92923,-49.53846 -0.009,-20.43462 0.41178,-43.2969 0.93373,-50.80508 l 0.949,-13.65122 -3.10285,-2.88428 c -8.44696,-7.85196 -23.09264,-11.30253 -30.56439,-7.20109 -10.59922,5.8182 -17.19571,24.48713 -19.91927,56.37419 -1.10264,12.90954 4.12199,77.27669 7.62844,93.98185 0.85773,4.08637 1.34437,7.6449 1.08142,7.90787 -1.95357,1.95353 -20.1462,-32.92612 -24.85102,-47.64532 -3.66531,-11.46703 -6.64716,-26.44869 -8.14695,-40.93257 -1.19552,-11.54542 -0.76132,-62.97209 0.68492,-81.12222 0.79227,-9.94298 -0.21421,-12.42296 -8.09098,-19.93613 -6.91204,-6.59296 -13.34777,-9.29149 -18.13998,-7.60615 -5.99143,2.10706 -13.20061,14.61317 -17.01698,29.52015 -4.17207,16.29636 -5.0242,27.07877 -5.61718,71.07692 l -0.58782,43.61539 -4.12899,-16.69231 c -4.94651,-19.99735 -13.06738,-59.68223 -15.42624,-75.38462 -2.73564,-18.21052 -3.2641,-40.78917 -1.22697,-52.42297 6.75835,-38.5962 25.27943,-53.29689 59.61371,-47.31702 21.42995,3.73236 38.8354,10.91744 77.29697,31.9087 28.03348,15.29989 35.00106,17.67184 44.44264,15.12949 12.58724,-3.38939 11.904,-14.70727 -2.84181,-47.07564 -9.20294,-20.20129 -11.22321,-28.47752 -11.26433,-46.14563 -0.0377,-16.19834 1.39205,-24.22413 6.5228,-36.61539 8.41452,-20.3218 28.19405,-38.84043 45.30983,-42.42139 11.74911,-2.45816 25.16662,-0.5423 37.63469,5.37378 10.29141,4.88326 23.07413,17.87216 29.04074,29.50915 7.98899,15.58139 9.4643,22.21472 9.46088,42.53846 -0.003,20.85337 -1.03436,25.68132 -9.31268,43.61539 -13.89323,30.09818 -14.18587,30.86979 -14.2834,37.66119 -0.14928,10.39528 4.14661,14.56957 14.99396,14.56957 7.91275,0 13.85296,-2.42626 37.14357,-15.17119 44.86743,-24.55206 61.02277,-30.97527 83.82432,-33.32778 28.21907,-2.91144 44.28659,8.02308 52.83865,35.95857 1.99376,6.51263 2.26011,10.08629 2.26011,30.32427 0,31.56627 -2.29515,47.71185 -14.93845,105.08673 -6.0843,27.61039 -6.19088,27.30076 -6.89265,-20.02444 -0.43669,-29.449 -1.13605,-45.70093 -2.34031,-54.38462 -4.1113,-29.64564 -10.76944,-45.24326 -20.71395,-48.52525 -5.11077,-1.68671 -11.22533,1.52228 -19.68253,10.32957 l -6.70721,6.98488 0.67094,6.18232 c 1.43424,13.21549 1.87015,66.63505 0.65242,79.95156 -3.0828,33.71216 -12.01415,61.81619 -27.36461,86.10742 -5.73502,9.07532 -5.94004,7.6943 -2.31315,-15.58082 4.9385,-31.69224 6.21404,-47.60463 5.61028,-69.98814 -0.58685,-21.75621 -2.22395,-33.10558 -6.78567,-47.04228 -6.86889,-20.98541 -18.13772,-25.54412 -38.11691,-15.4199 -8.54221,4.32866 -8.70509,4.86448 -7.53788,24.79572 1.63922,27.9912 1.32904,76.00332 -0.58537,90.60722 -3.08543,23.53701 -9.05451,45.72603 -15.05539,55.96574 -1.51777,2.58989 -2.90312,4.70889 -3.07855,4.70889 -0.17542,0 -0.0938,-12.23654 0.18146,-27.19231 0.56582,-30.7464 -0.95364,-58.04088 -4.03175,-72.42308 -4.93293,-23.04869 -11.86499,-35.33386 -20.75129,-36.77591 -5.11352,-0.8298 -10.04373,1.66826 -18.06739,9.15448 l -6.51965,6.08297 -1.58558,19.38462 c -0.87207,10.66153 -2.53155,33.92307 -3.6877,51.6923 -1.15616,17.76923 -2.61102,36.18462 -3.23302,40.92308 -0.62199,4.73846 -1.85794,18.55 -2.74655,30.69231 -1.51432,20.69214 -3.86068,45.30173 -5.85265,61.38461 -0.77681,6.27194 -0.8817,6.49596 -1.00835,2.15385 z"
     id="path3757" />
  <path
     style="fill:#782121;fill-opacity:0;stroke:#ea0a8e;stroke-width:1.07692;stroke-opacity:1"
     d="m 331.89669,668.63835 c -1.02149,-12.07032 -3.29486,-41.33066 -5.05195,-65.02297 -1.75708,-23.6923 -3.90839,-51.31538 -4.78066,-61.38461 -0.87228,-10.06923 -2.09373,-25.57692 -2.71435,-34.46154 -1.86414,-26.68696 -1.68995,-25.97386 -7.97836,-32.66192 -5.69308,-6.05491 -12.11868,-9.8145 -16.83291,-9.84886 -7.42622,-0.0542 -14.3611,8.64031 -19.30147,24.19878 -2.65394,8.35795 -3.73143,13.43532 -6.05715,28.54277 -1.19541,7.76505 -1.61661,20.83541 -1.60514,49.80769 0.006,17.62116 -0.2472,32.03846 -0.56486,32.03846 -0.31765,0 -2.2598,-3.54235 -4.31589,-7.8719 -4.18241,-8.80695 -9.09539,-27.04903 -11.83054,-43.92717 -2.46104,-15.18679 -3.34841,-68.83102 -1.58094,-95.57418 l 1.3058,-19.75785 -3.03055,-3.16322 c -4.13754,-4.31867 -13.04,-8.49134 -19.62728,-9.1995 -10.65655,-1.14562 -18.17078,5.06292 -23.31376,19.26274 -5.81657,16.05957 -8.05615,36.52145 -6.79141,62.04948 1.01985,20.58525 4.74848,57.97631 6.9295,69.48991 0.88165,4.65417 1.3678,8.69732 1.08035,8.98478 -1.80033,1.80033 -18.18841,-28.30206 -23.59259,-43.33597 -3.83111,-10.65777 -8.01016,-30.16204 -9.45136,-44.11096 -1.1975,-11.59032 -0.79956,-63.88517 0.62922,-82.68748 0.55684,-7.32777 0.35057,-8.84289 -1.64298,-12.06852 -3.66778,-5.9346 -12.29658,-13.01716 -17.70327,-14.53094 -4.33083,-1.21255 -5.22191,-1.14777 -7.84401,0.5703 -1.62698,1.06604 -3.82021,2.94416 -4.87384,4.1736 -3.53863,4.12908 -9.21679,17.23494 -11.46652,26.46611 -2.35724,9.6723 -5.79012,40.27338 -5.4365,48.46154 0.11511,2.66539 0.0971,18.17308 -0.0399,34.46154 l -0.2492,29.61539 -4.75278,-18.84616 c -11.71423,-46.45035 -17.00098,-78.98932 -17.05983,-105 -0.0378,-16.69408 0.29444,-20.71266 2.39351,-28.9529 6.63995,-26.06618 19.00032,-38.42001 40.2203,-40.19902 8.96585,-0.75166 26.08615,2.01848 39.18849,6.34087 10.1077,3.33447 36.37645,15.92907 65.52676,31.41691 18.90088,10.04221 26.5319,12.43179 33.59998,10.52143 6.17148,-1.66802 8.92433,-3.99736 9.71688,-8.22201 0.91547,-4.87988 -0.94354,-15.15577 -3.92457,-21.69363 -14.39606,-31.57267 -17.83681,-42.01205 -18.93269,-57.44242 -1.23917,-17.44815 3.42893,-38.54339 11.62028,-52.51207 1.99326,-3.39913 7.74336,-10.34604 12.77797,-15.43758 16.04113,-16.22248 30.98375,-21.11088 50.95146,-16.66848 12.57577,2.79784 20.46423,7.25571 30.48244,17.22603 7.48251,7.44674 9.52655,10.32847 14.19144,20.00749 7.65655,15.88625 9.27477,24.25565 8.5141,44.03476 -0.68489,17.80861 -2.08237,24.02066 -8.47312,37.66441 -15.51278,33.11857 -17.66944,40.05226 -14.41531,46.34506 2.99678,5.79513 6.74318,7.81038 14.01759,7.54026 8.99597,-0.33405 12.29773,-1.68402 36.65448,-14.98689 44.65749,-24.39045 60.80185,-30.83449 83.62636,-33.37958 24.43443,-2.7246 40.20897,4.98611 49.2876,24.09212 5.6492,11.88875 6.54758,17.6625 6.54758,42.08006 0,12.22824 -0.51837,26.93905 -1.15193,32.6907 -2.26371,20.55065 -15.6849,85.88438 -18.85089,91.76525 -1.25167,2.32501 -1.47583,-0.98063 -1.64306,-24.23077 -0.10651,-14.80769 -0.0895,-28.68644 0.0378,-30.84165 0.34512,-5.84421 -1.89227,-32.19304 -3.82806,-45.08143 -3.03452,-20.20375 -9.33056,-35.89898 -16.2084,-40.40551 -6.35648,-4.16493 -14.45324,-0.66225 -25.0543,10.83854 l -4.56275,4.95 0.90005,8.27003 c 0.49502,4.54851 0.88883,24.50464 0.87512,44.34694 -0.0205,29.55565 -0.37547,38.21824 -1.96423,47.92308 -4.82621,29.48048 -12.73144,51.41152 -25.803,71.58385 -4.17827,6.44798 -4.54104,6.74912 -4.85696,4.03171 -0.18777,-1.61522 0.64726,-9.11258 1.85566,-16.66077 6.0814,-37.98769 7.86079,-71.30161 4.97384,-93.121 -4.21913,-31.88787 -12.55843,-47.33046 -25.55141,-47.31572 -7.9825,0.009 -22.41448,6.09686 -25.19873,10.6295 -0.84475,1.37522 -0.8992,7.34215 -0.18958,20.77551 0.54754,10.36538 0.78698,34.35384 0.53209,53.30769 -0.49793,37.02537 -1.4666,45.53173 -7.91007,69.46154 -2.74508,10.19475 -8.87015,24.96299 -10.86449,26.19557 -0.67269,0.41574 -1.0126,-10.25852 -0.94688,-29.73504 0.0564,-16.71098 -0.0802,-34.98745 -0.30354,-40.61438 -0.72691,-18.31427 -4.59803,-37.49819 -9.98135,-49.46411 -4.36855,-9.71031 -7.75277,-13.77637 -12.6998,-15.25854 -3.65937,-1.09638 -4.77072,-0.96441 -8.85631,1.05165 -2.56952,1.26795 -7.45707,4.84532 -10.86121,7.94972 l -6.18935,5.64436 -2.12583,28 c -1.1692,15.4 -2.87603,39.14615 -3.79295,52.76923 -0.91693,13.62308 -2.13496,28.16154 -2.70673,32.30769 -0.57177,4.14616 -1.5429,15.05 -2.15803,24.23077 -1.02001,15.22309 -6.19948,70.31734 -6.82158,72.56143 -0.14424,0.52033 -1.09802,-8.92967 -2.11949,-21 z"
     id="path3833" />
  <path
     style="fill:#00ff00;fill-opacity:0;stroke:#ea0a8e;stroke-width:1.07692;stroke-opacity:1"
     d="m 332.93347,683.06019 c -0.37936,-4.01003 -2.88848,-35.64096 -5.57584,-70.29096 -9.00783,-116.14427 -10.0713,-128.7421 -11.09548,-131.43587 -1.44671,-3.80517 -10.24733,-11.60321 -15.9338,-14.11861 -10.92007,-4.83047 -18.59456,2.53847 -25.51633,24.50044 -5.08802,16.14369 -6.25867,27.99444 -6.89429,69.79246 -0.57122,37.56388 -0.64308,38.58835 -2.53122,36.08519 -4.57247,-6.06186 -10.28824,-24.65052 -14.04285,-45.66976 -1.93456,-10.83015 -2.39386,-18.51634 -2.83599,-47.45931 -0.31474,-20.60396 -0.0319,-41.843 0.70109,-52.64874 1.42622,-21.02496 1.37635,-21.19535 -7.72562,-26.39646 -23.67133,-13.52642 -37.75939,0.60881 -42.89932,43.04297 -2.36663,19.53838 1.25088,73.58038 7.22682,107.96154 0.38607,2.22115 0.26731,4.03846 -0.26391,4.03846 -3.08462,0 -20.06435,-33.02054 -25.04028,-48.69591 -7.00441,-22.06554 -8.11484,-31.85371 -8.159,-71.91948 -0.0219,-19.8423 0.20255,-41.23804 0.4987,-47.54608 l 0.53847,-11.46915 -3.3776,-4.66441 c -1.85767,-2.56544 -6.02551,-6.53676 -9.26186,-8.82518 -10.68343,-7.55423 -16.74629,-5.28456 -23.95143,8.96636 -9.33837,18.4702 -12.30443,42.56239 -12.0317,97.72879 0.0886,17.91622 -0.1619,32.57583 -0.5566,32.57692 -0.39471,0.001 -2.43034,-7.14609 -4.52362,-15.88263 -13.88272,-57.94109 -18.74416,-89.81101 -17.60404,-115.40593 1.32443,-29.73264 10.59044,-49.10088 27.46119,-57.40065 7.03175,-3.45936 7.50031,-3.53682 20.67408,-3.41784 21.63442,0.1954 36.39775,4.8438 70.01773,22.04585 51.10433,26.14814 48.95395,25.21703 58.23851,25.21703 7.2847,0 8.70214,-0.32407 11.04515,-2.5252 1.47837,-1.38887 2.98752,-3.71876 3.35365,-5.17755 1.27686,-5.08742 -1.76493,-15.87917 -9.63761,-34.19259 -9.60472,-22.34248 -12.25418,-31.40322 -13.09912,-44.79697 -1.6451,-26.07755 5.91251,-48.68608 21.98668,-65.77303 13.68275,-14.54485 25.31308,-20.3962 40.47791,-20.3649 16.68434,0.0344 31.0308,6.03828 43.11018,18.04116 11.49675,11.42392 19.5216,26.80175 22.28394,42.70215 1.65739,9.54016 0.72776,35.53867 -1.57143,43.94781 -1.32667,4.85217 -12.75338,31.52066 -19.04426,44.44681 -0.57652,1.18462 -1.44593,4.68936 -1.93201,7.7883 -1.84414,11.75696 4.81376,18.50006 16.86753,17.08338 6.7249,-0.79039 14.1794,-4.02974 33.67079,-14.63169 49.31774,-26.82538 67.92878,-33.6025 92.55778,-33.7045 10.34462,-0.0429 13.40402,0.34582 18.57333,2.35957 8.86559,3.45365 17.12748,11.393 21.78521,20.93473 6.23681,12.77662 7.02608,17.71444 7.02608,43.9567 0,31.81221 -2.49847,50.13116 -13.53927,99.2712 -7.25317,32.28209 -7.87589,32.41978 -8.0892,1.78847 -0.38709,-55.58442 -2.424,-78.47958 -8.71872,-98 -4.59283,-14.24274 -10.52285,-21.53847 -17.50666,-21.53847 -4.27745,0 -14.20435,6.95823 -19.72107,13.8234 l -3.49801,4.35302 1.05627,10.02718 c 1.41199,13.40418 1.38044,64.61283 -0.0484,78.56692 -3.29876,32.21559 -12.81907,61.37603 -27.02208,82.76795 -4.21351,6.34617 -4.67966,6.73777 -4.99075,4.1925 -0.18872,-1.54411 1.11752,-13.17488 2.90278,-25.84615 4.29077,-30.45474 5.78129,-54.99302 4.45491,-73.34049 -2.23529,-30.92019 -8.43921,-49.42701 -18.75069,-55.93483 -2.66129,-1.67961 -4.6605,-2.02575 -9.45103,-1.63639 -7.20595,0.58569 -17.97631,5.15232 -21.61487,9.16473 -2.54353,2.80487 -2.57992,3.12086 -1.81805,15.78524 1.44251,23.97857 1.09454,82.00974 -0.57173,95.34863 -2.78034,22.25737 -7.72679,41.28455 -13.89777,53.45977 -5.10144,10.06502 -5.37488,9.14061 -4.5518,-15.38756 2.15469,-64.21029 -6.35023,-106.26129 -22.88928,-113.17174 -3.42504,-1.43107 -4.04797,-1.34661 -9.20413,1.24805 -3.04175,1.53067 -8.02644,5.07383 -11.07709,7.87371 l -5.54663,5.09068 -1.16842,15.07692 c -0.64263,8.29231 -2.3812,32.28077 -3.8635,53.3077 -1.4823,21.02692 -2.9338,39.68461 -3.22556,41.46153 -0.29177,1.77693 -1.51789,15.34616 -2.72472,30.15385 -2.36244,28.9868 -6.36048,69.718 -6.89585,70.25337 -0.1807,0.18071 -0.63893,-2.95238 -1.01829,-6.96241 z"
     id="path3872" />
  <path
     style="fill:#00ff00;fill-opacity:0;stroke:#ea0a8e;stroke-width:1.07692;stroke-opacity:1"
     d="m 332.93074,684.15167 c -0.70605,-6.62926 -3.34181,-39.71261 -10.36314,-130.07475 -5.41005,-69.62552 -5.64507,-71.71072 -8.54025,-75.77662 -4.04646,-5.68274 -12.65876,-11.19644 -18.34156,-11.74248 -4.51275,-0.43361 -5.53997,-0.10974 -8.83911,2.78695 -6.27352,5.50822 -12.49911,20.62173 -15.4574,37.52512 -1.45916,8.33743 -3.57275,35.3245 -3.40199,43.4378 0.0436,2.07308 -0.0222,14.12665 -0.14629,26.78571 -0.19467,19.8592 -0.43765,22.84051 -1.77132,21.73365 -2.3932,-1.98617 -7.68921,-15.60821 -10.71705,-27.56561 C 249.38628,547.69935 248.90498,542.2157 248.8346,497 c -0.036,-23.1 0.15,-47.06534 0.41324,-53.2563 0.46851,-11.01912 0.41854,-11.31725 -2.37146,-14.14818 -7.19423,-7.29976 -22.18371,-10.65735 -29.87638,-6.6922 -7.43025,3.82989 -13.22556,16.21213 -16.93504,36.18335 -3.49317,18.80661 -1.69386,64.26867 4.15686,105.02882 1.21762,8.48276 1.8923,15.74475 1.49928,16.13776 -2.78399,2.784 -21.47169,-34.29263 -26.91387,-53.39744 -6.26678,-21.9996 -6.49383,-24.73128 -6.4968,-78.16467 l -0.003,-49.3858 -4.25207,-4.88878 c -5.46551,-6.28392 -12.96057,-11.03195 -17.4146,-11.03195 -4.98754,0 -9.18543,4.04788 -13.7243,13.23385 -4.20639,8.51307 -7.39438,19.59297 -9.25455,32.16425 -1.42234,9.61242 -3.61245,71.46772 -3.07312,86.79421 0.21364,6.07116 0.0127,11.03846 -0.44646,11.03846 -0.45919,0 -0.8349,-0.22135 -0.8349,-0.49188 0,-0.27053 -1.91186,-8.14553 -4.24858,-17.5 -5.04704,-20.20455 -10.99965,-48.82082 -14.24911,-68.50044 -1.83986,-11.14274 -2.36164,-18.95313 -2.42349,-36.27691 -0.0706,-19.78395 0.17613,-23.00938 2.37582,-31.05478 4.83969,-17.70115 12.59975,-28.82147 24.429,-35.00725 6.40615,-3.34991 6.71304,-3.39779 21.03944,-3.28189 22.78348,0.18431 36.9319,4.78121 74.72567,24.27873 44.21428,22.80983 43.79645,22.62515 52.1578,23.05351 6.4201,0.32891 8.07708,0.027 11.13707,-2.029 3.12733,-2.10128 3.63816,-3.09142 3.92791,-7.61347 0.39407,-6.14986 -1.16362,-14.10764 -3.98768,-20.37187 -14.75279,-32.72422 -18.43416,-45.43706 -18.40816,-63.56871 0.0388,-27.03608 10.46853,-50.02516 30.45179,-67.12115 9.19744,-7.86857 17.76789,-11.36626 29.25775,-11.94039 32.19654,-1.6088 58.4675,20.08674 67.48039,55.72786 2.02058,7.99036 2.2291,11.13111 1.7491,26.34627 -0.63426,20.10545 -1.55957,23.74209 -11.681,45.90912 -12.17066,26.65506 -13.51442,31.90264 -10.04278,39.2186 3.45694,7.28496 14.91676,8.4168 27.20934,2.68738 3.94715,-1.83973 17.76746,-8.96514 30.71181,-15.83425 38.50153,-20.43144 56.88419,-27.26041 77.70367,-28.86614 11.33571,-0.87427 21.23484,0.61665 28.48387,4.29001 10.38164,5.26077 20.45834,20.15175 23.75011,35.09702 0.94829,4.30547 1.1605,14.17566 0.75248,35 -0.50925,25.99053 -0.90629,30.90533 -3.822,47.31117 -4.5429,25.56145 -12.8893,62.6993 -15.24782,67.84616 l -1.97399,4.30769 -0.11185,-16.69231 c -0.19555,-29.18275 -2.15889,-71.24416 -3.84409,-82.35313 -4.17651,-27.53201 -11.21451,-43.03894 -20.60316,-45.39534 -3.89178,-0.97677 -11.01554,3.13983 -18.34307,10.59992 l -6.64377,6.76394 0.93185,8.61538 c 1.32702,12.26881 1.26328,69.72384 -0.0911,82.15783 -3.39364,31.15455 -13.55487,61.52967 -27.27533,81.53448 -4.27305,6.23021 -4.44429,6.35151 -4.78327,3.38798 -0.19337,-1.69045 0.89358,-12.10968 2.41544,-23.15385 3.8678,-28.06868 4.93419,-41.18004 4.93522,-60.67897 0.002,-38.31561 -7.3728,-64.88099 -19.77281,-71.22486 -3.66919,-1.87717 -4.89188,-1.99101 -10.3941,-0.96776 -6.54368,1.21693 -17.44268,6.00671 -19.6098,8.61792 -0.93897,1.1314 -1.29091,15.94684 -1.34509,56.62209 -0.0698,52.38989 -0.19007,55.67031 -2.45437,66.93591 -4.35477,21.66637 -11.26857,42.61767 -15.25369,46.22415 -1.96962,1.78248 -2.03246,0.80891 -2.57998,-39.96781 -0.5845,-43.53189 -1.1381,-49.70378 -6.07119,-67.68503 -1.28191,-4.67263 -3.8383,-11.32414 -5.68087,-14.78114 -6.90125,-12.94807 -13.46381,-14.81246 -24.1418,-6.8586 -10.80926,8.05166 -11.86813,9.68954 -12.62599,19.52997 -0.36494,4.73846 -2.11667,28.96923 -3.89275,53.84615 -1.77608,24.87692 -3.48092,46.92692 -3.78856,49 -0.30762,2.07308 -1.78296,18.28481 -3.27854,36.02608 -2.7704,32.8639 -5.64923,61.02641 -6.30531,61.68251 -0.20019,0.20019 -0.6625,-2.43889 -1.02735,-5.86461 z"
     id="path4096" />
  <path
     style="fill:#ea0a8e;fill-opacity:1;stroke:#ea0a8e;stroke-width:1.07692;stroke-opacity:1"
     d="m 332.88546,685.26125 c -0.65563,-5.2836 -2.06203,-22.73935 -8.74736,-108.56894 -4.45751,-57.22767 -6.9696,-87.48758 -7.50986,-90.46154 -0.21519,-1.18462 -0.42728,-2.75822 -0.47129,-3.4969 -0.13001,-2.18184 -7.77842,-10.08524 -12.94471,-13.37628 -11.71982,-7.46576 -20.06227,-1.1546 -27.40521,20.73235 -1.50697,4.49179 -3.49497,12.73025 -4.4178,18.3077 -1.73065,10.45999 -3.68015,50.47926 -3.7399,76.77268 -0.0284,12.5246 -0.27243,14.74163 -1.50928,13.71514 -4.02171,-3.33773 -11.11521,-24.77039 -14.83012,-44.80854 -1.88128,-10.14755 -2.2684,-17.63684 -2.69981,-52.23077 -0.277,-22.21154 -0.0709,-46.68461 0.45808,-54.38461 l 0.96171,-14 -2.78419,-3.10765 c -3.68225,-4.11005 -15.0775,-9.27697 -20.45966,-9.27697 -12.09301,0 -19.23097,8.35263 -24.33601,28.47732 -4.02595,15.87075 -5.15979,32.07985 -3.7891,54.16799 1.49293,24.05802 2.73634,37.26953 5.53312,58.79073 1.21875,9.37827 1.88984,17.37443 1.49131,17.76923 -1.38135,1.36841 -6.01499,-5.82156 -14.00581,-21.73268 -8.51271,-16.95031 -12.93543,-29.232 -16.77619,-46.58674 -2.19714,-9.92793 -2.39116,-14.16157 -2.84306,-62.03668 l -0.485,-51.38161 -4.16495,-4.73162 c -5.20517,-5.9134 -14.58015,-11.04387 -18.41968,-10.08021 -6.48112,1.62665 -14.03501,14.18902 -18.08254,30.07183 -4.51824,17.72998 -6.415,51.71977 -5.61919,100.69552 0.20723,12.75332 -0.96531,15.58005 -3.12924,7.54385 -7.48915,-27.8126 -17.37482,-77.35737 -19.37205,-97.0884 -1.8275,-18.05435 -0.81421,-42.99545 2.16634,-53.32171 4.89224,-16.94945 13.3369,-28.71315 24.55021,-34.19931 11.54099,-5.64648 34.02886,-4.39707 56.26501,3.12606 5.62692,1.90375 26.86215,11.83337 47.18938,22.06582 l 36.95861,18.60446 h 8.39454 c 7.63406,0 8.65174,-0.2572 11.2337,-2.83916 2.03014,-2.03015 2.83462,-3.94807 2.82324,-6.73077 -0.0256,-6.26291 -2.77491,-16.07016 -7.58172,-27.04546 -11.96519,-27.31987 -15.01775,-38.70263 -15.01775,-56 0,-22.97441 6.61803,-41.61236 20.71018,-58.32482 5.67852,-6.73439 15.48214,-14.32302 23.13821,-17.91048 5.68801,-2.66527 7.35,-2.91854 19.15161,-2.91854 15.92012,0 23.74773,2.35264 35.23599,10.59043 9.78884,7.01921 16.93971,15.8136 22.91265,28.1788 7.20242,14.91045 8.45709,21.84313 7.83948,43.31692 -0.60304,20.96658 -0.74683,21.50607 -13.19406,49.50115 -4.48225,10.08103 -8.7051,20.97781 -9.38412,24.21504 -1.08796,5.1869 -0.98921,6.38752 0.83159,10.11018 2.8188,5.76312 5.88031,7.13756 14.68951,6.59471 7.96449,-0.49078 5.80188,0.48292 55.76127,-25.10602 35.76423,-18.31826 55.87614,-24.25889 76.6933,-22.65359 15.92369,1.22794 27.69355,9.32467 35.21541,24.22537 5.97117,11.82882 6.67998,16.47895 6.6509,43.63268 -0.0361,33.65652 -3.40092,57.63966 -14.8302,105.70202 -6.26212,26.33347 -6.42684,26.08718 -7.25225,-10.844 -0.39622,-17.7281 -0.94941,-36.35215 -1.22933,-41.38677 -2.22321,-39.98776 -9.59003,-65.33581 -20.49177,-70.50904 -3.46535,-1.64441 -3.9619,-1.62052 -8.55585,0.4116 -2.68234,1.18653 -7.82859,4.96501 -11.4361,8.39662 l -6.55911,6.23928 L 496.41931,413 c 1.0827,18.58697 0.76522,67.97525 -0.51127,79.53468 -1.91562,17.34729 -6.21025,36.08109 -11.49261,50.1325 -4.77445,12.70035 -16.42883,34.14299 -19.63376,36.12375 -1.79812,1.11129 -1.44491,-5.36446 1.46543,-26.86785 8.75699,-64.70198 5.00102,-109.95807 -10.47787,-126.24895 -4.9313,-5.18999 -9.00258,-6.17243 -17.04279,-4.11262 -7.73207,1.98086 -16.6654,6.55802 -17.71299,9.07556 -0.39995,0.96115 -0.79986,26.70524 -0.88871,57.20908 -0.14168,48.64895 -0.39728,56.58595 -2.08086,64.61539 -4.82706,23.02152 -11.59551,43.02928 -15.86287,46.89118 -2.08176,1.88398 -2.10532,1.62533 -2.21939,-24.37812 -0.0634,-14.45527 -0.0351,-29.6746 0.0629,-33.82075 0.098,-4.14616 -0.58617,-14.08077 -1.52043,-22.07693 -4.16347,-35.63427 -13.86582,-55.63425 -25.89444,-53.37767 -1.9929,0.37387 -6.44149,2.77576 -9.88577,5.33752 -11.54016,8.58326 -10.40686,4.34315 -13.70371,51.27092 -1.60205,22.80385 -3.60571,49.45769 -4.45257,59.23077 -0.84686,9.77308 -2.53969,29.4 -3.76183,43.61539 -2.79497,32.50971 -6.09495,64.10968 -6.76492,64.77965 -0.28165,0.28165 -0.80157,-1.82086 -1.15539,-4.67225 z"
     id="path4135" />
  <path
     style="fill:#e20074;fill-opacity:1;stroke:#e20074;stroke-width:1.077;stroke-opacity:1;stroke-miterlimit:4;stroke-dasharray:none"
     d="m 332.91905,686.85791 c -0.35594,-1.95262 -2.84488,-31.65791 -5.53098,-66.01176 -7.06439,-90.35046 -10.16947,-128.53553 -10.92514,-134.35322 -0.50294,-3.87196 -1.6922,-6.28898 -4.87167,-9.90106 -5.24795,-5.96198 -14.5608,-10.76611 -18.98605,-9.79417 -9.40041,2.06468 -18.6304,22.25573 -21.78737,47.66088 -0.92981,7.48256 -3.07553,62.17594 -3.17688,80.97756 -0.025,4.64011 -0.0716,4.70214 -2.13277,2.83685 -3.98483,-3.60622 -10.18919,-22.79352 -14.81668,-45.82135 -1.57916,-7.85836 -1.85593,-17.00284 -1.96859,-65.04169 l -0.13108,-55.89774 -2.60361,-2.14378 c -3.98842,-3.28401 -13.00995,-7.13679 -18.30633,-7.81798 -6.24668,-0.80343 -13.3159,2.73774 -17.32849,8.68032 -3.90531,5.78371 -8.01923,18.52441 -10.144,31.41574 -1.4024,8.50851 -1.62455,15.33631 -1.13276,34.81503 0.62845,24.89125 1.22134,32.29874 5.15339,64.38534 1.25473,10.23887 1.93244,18.96195 1.50603,19.38462 -2.31202,2.29179 -18.23617,-27.29701 -24.70625,-45.90689 -8.17429,-23.5117 -8.4302,-25.90102 -8.96902,-83.74176 l -0.48256,-51.80177 -4.48143,-4.62493 c -9.72374,-10.03511 -17.43924,-12.56671 -22.83899,-7.49391 -4.03922,3.79465 -10.94236,18.49344 -13.38079,28.49161 -3.5337,14.48903 -4.47148,27.40914 -5.10327,70.3098 -0.41931,28.47263 -0.96264,41.11442 -1.75569,40.85007 -1.95024,-0.65009 -12.46445,-45.85528 -18.21485,-78.31372 -3.06373,-17.29333 -3.34529,-20.88702 -3.41718,-43.61539 -0.0874,-27.6432 0.59839,-31.79079 7.691,-46.51147 4.31484,-8.95546 12.57125,-17.46424 20.49906,-21.12564 4.4779,-2.06809 6.93006,-2.36001 19.65467,-2.33981 24.23036,0.0385 34.04168,3.42691 86.65949,29.92887 31.93422,16.08428 32.44198,16.29397 40.41743,16.69174 6.98453,0.34833 8.47206,0.0916 10.99842,-1.89787 6.05534,-4.76859 4.75617,-14.3219 -5.13372,-37.75037 -11.30425,-26.77899 -13.40316,-35.06 -13.40316,-52.88048 0,-19.1915 4.19804,-34.68448 13.18018,-48.64182 6.26787,-9.73963 18.41241,-21.11083 27.83446,-26.06197 7.36587,-3.87066 8.71482,-4.2041 18.73067,-4.63 19.89,-0.84577 33.01131,4.20441 46.90834,18.05426 9.39222,9.36036 16.67978,22.19236 20.48909,36.07744 2.08516,7.60049 2.26898,10.37799 1.81257,27.38808 -0.59155,22.04707 -0.72202,22.56719 -12.22692,48.74259 -4.43562,10.09171 -8.79399,21.19501 -9.68526,24.67397 -1.51963,5.93169 -1.48993,6.62057 0.4771,11.06737 1.66194,3.75708 2.92266,5.01425 6.07016,6.05302 8.56186,2.82566 13.42092,1.12023 50.55317,-17.74325 19.00181,-9.65307 39.3949,-19.35845 45.31798,-21.56752 34.40611,-12.83212 61.18985,-10.23867 74.64299,7.22764 4.55675,5.91606 9.32047,16.042 10.79087,22.93753 3.36589,15.78451 2.15788,55.44638 -2.54205,83.46154 -3.63612,21.67412 -13.07657,63.94049 -15.51465,69.46154 l -1.90225,4.30769 -0.6687,-23.69231 c -1.69276,-59.97623 -3.37338,-79.73479 -8.27508,-97.28776 -4.08435,-14.62601 -10.59276,-23.86608 -16.8105,-23.86608 -4.11402,0 -10.26689,3.62749 -17.07851,10.06883 l -6.22138,5.88319 0.81353,9.52398 c 1.21449,14.218 0.8382,72.22698 -0.54601,84.17573 -2.22274,19.1869 -8.18339,42.11538 -15.02867,57.80981 -3.47312,7.96294 -12.58332,23.54946 -15.09088,25.81877 -2.16156,1.95618 -2.1841,1.92945 -2.1841,-2.58978 0,-2.5115 1.19225,-13.85393 2.64945,-25.20537 7.79232,-60.70177 5.03323,-101.8002 -8.11744,-120.91404 -4.30102,-6.25132 -8.44564,-8.31892 -15.50266,-7.7337 -6.39808,0.53058 -19.25938,6.16305 -20.84712,9.12978 -0.66104,1.23517 -1.25575,24.03224 -1.54072,59.06068 l -0.46411,57.04904 -2.83917,11.84615 c -5.44115,22.70273 -12.81584,42.53847 -15.81527,42.53847 -0.6634,0 -1.09688,-9.18714 -1.15598,-24.5 -0.1842,-47.72271 -1.03543,-60.42135 -5.25254,-78.35699 -4.2218,-17.9556 -9.86724,-28.42197 -16.91998,-31.3688 -3.60689,-1.50705 -4.14238,-1.44247 -9.35631,1.12825 -7.90492,3.89752 -14.25618,10.09837 -15.59771,15.22833 -0.61183,2.3396 -2.83413,27.51536 -4.93846,55.94613 -5.67335,76.65066 -12.34037,149.39737 -13.82818,150.88517 -0.28762,0.28763 -0.81417,-1.07465 -1.17013,-3.02726 z"
     id="path15064" />
</svg>
